<svg width="100%" height="100%" viewBox="0 0 39 33" xmlns="http://www.w3.org/2000/svg">
<symbol id="like" viewBox="0 0 39 33">
 <g>
  <title>background</title>
  <rect fill="none" id="canvas_background" height="32" width="40" y="0" x="0"/>
 </g>
 <g>
  <title>Layer 1</title>
  <g stroke="null" id="svg_1">
   <path stroke="null" stroke-width="0" fill="whiteSet" id="svg_2" d="m35.545292,17.406106c3.849349,-3.76103 3.849349,-9.876525 0,-13.606977l0,0c-3.849349,-3.76103 -10.108452,-3.76103 -13.957801,0l-1.877731,1.834649l-1.877731,-1.834649c-3.849349,-3.76103 -10.108452,-3.76103 -13.926505,0c-1.877731,1.804071 -2.879188,4.250269 -2.879188,6.818777s1.032752,4.984129 2.879188,6.818777l15.804236,15.441625l15.835532,-15.472203zm-32.046609,-6.7882c0,-1.926381 0.751092,-3.730452 2.159391,-5.075861c1.439594,-1.406564 3.317325,-2.109846 5.195056,-2.109846s3.755462,0.703282 5.195056,2.109846l3.661575,3.546987l3.661575,-3.577565c2.879188,-2.813128 7.54222,-2.813128 10.390112,0c1.377003,1.345409 2.159391,3.14948 2.159391,5.075861s-0.751092,3.730452 -2.159391,5.075861l-14.051687,13.759864l-14.051687,-13.729287c-1.377003,-1.375986 -2.159391,-3.180057 -2.159391,-5.075861z"/>
  </g>
 </g>
 </symbol>
</svg>